<mxfile host="app.diagrams.net" modified="2022-06-07T06:40:30.266Z" agent="5.0 (Windows NT 6.1; Win64; x64) AppleWebKit/537.36 (KHTML, like Gecko) Chrome/102.0.5005.63 Safari/537.36" etag="5yfScmxgR4kUy-bQVpx_" version="19.0.0" type="github" pages="2">
  <diagram id="8Mcmq0ioaoLnQd22ZTMx" name="第 1 页">
    <mxGraphModel dx="868" dy="468" grid="1" gridSize="10" guides="1" tooltips="1" connect="1" arrows="1" fold="1" page="1" pageScale="1" pageWidth="300" pageHeight="900" math="0" shadow="0">
      <root>
        <mxCell id="0" />
        <mxCell id="1" parent="0" />
        <mxCell id="98vJzE4Z4TFfjShBDfRC-30" value="" style="text;html=1;fillColor=none;align=center;verticalAlign=middle;whiteSpace=wrap;fontSize=54;fontStyle=1;shadow=1;rounded=1;glass=0;sketch=0;arcSize=1;dashed=1;strokeWidth=1;container=0;strokeColor=default;" parent="1" vertex="1">
          <mxGeometry x="20" y="300" width="560" height="180" as="geometry" />
        </mxCell>
        <mxCell id="Qy1Y6E39n3u61H79zV9y-25" value="" style="rounded=1;whiteSpace=wrap;html=1;shadow=1;fontSize=11;strokeWidth=1;fillColor=#d5e8d4;dashed=1;arcSize=5;strokeColor=#82b366;" parent="1" vertex="1">
          <mxGeometry x="18" y="56" width="560" height="214" as="geometry" />
        </mxCell>
        <mxCell id="Qy1Y6E39n3u61H79zV9y-29" value="&lt;b style=&quot;color: rgb(51, 51, 51); font-size: 14px;&quot;&gt;实时监控&lt;/b&gt;" style="rounded=0;whiteSpace=wrap;html=1;shadow=1;fontSize=11;strokeColor=#23445d;strokeWidth=1;fillColor=#bac8d3;" parent="1" vertex="1">
          <mxGeometry x="60" y="77.25" width="110" height="45" as="geometry" />
        </mxCell>
        <mxCell id="Qy1Y6E39n3u61H79zV9y-32" value="&lt;b style=&quot;color: rgb(51, 51, 51); font-size: 14px;&quot;&gt;账号审计&lt;/b&gt;" style="rounded=0;whiteSpace=wrap;html=1;shadow=1;fontSize=11;strokeColor=#23445d;strokeWidth=1;fillColor=#bac8d3;" parent="1" vertex="1">
          <mxGeometry x="60" y="140.5" width="110" height="45" as="geometry" />
        </mxCell>
        <mxCell id="98vJzE4Z4TFfjShBDfRC-1" value="" style="text;html=1;fillColor=none;align=center;verticalAlign=middle;whiteSpace=wrap;fontSize=54;fontStyle=1;shadow=1;rounded=1;glass=0;sketch=0;arcSize=1;dashed=1;strokeWidth=1;container=0;strokeColor=default;" parent="1" vertex="1">
          <mxGeometry x="20" y="506" width="558" height="90" as="geometry" />
        </mxCell>
        <mxCell id="98vJzE4Z4TFfjShBDfRC-3" value="&lt;b&gt;关系型数据库&lt;/b&gt;" style="rounded=1;whiteSpace=wrap;html=1;fillColor=#d5e8d4;strokeColor=#82b366;" parent="1" vertex="1">
          <mxGeometry x="140" y="521" width="120" height="60" as="geometry" />
        </mxCell>
        <mxCell id="98vJzE4Z4TFfjShBDfRC-4" value="&lt;b&gt;非关系型数据库&lt;/b&gt;" style="rounded=1;whiteSpace=wrap;html=1;fillColor=#e1d5e7;strokeColor=#9673a6;" parent="1" vertex="1">
          <mxGeometry x="346" y="521" width="120" height="60" as="geometry" />
        </mxCell>
        <mxCell id="98vJzE4Z4TFfjShBDfRC-5" value="&lt;b&gt;缓存服务&lt;/b&gt;" style="rounded=1;whiteSpace=wrap;html=1;fillColor=#fff2cc;strokeColor=#d6b656;shadow=1;arcSize=13;" parent="1" vertex="1">
          <mxGeometry x="403" y="320" width="70" height="120" as="geometry" />
        </mxCell>
        <mxCell id="98vJzE4Z4TFfjShBDfRC-12" value="" style="endArrow=classic;html=1;rounded=0;fontSize=10;entryX=0;entryY=0.5;entryDx=0;entryDy=0;exitX=1;exitY=0.5;exitDx=0;exitDy=0;" parent="1" edge="1">
          <mxGeometry width="50" height="50" relative="1" as="geometry">
            <mxPoint x="296" y="370" as="sourcePoint" />
            <mxPoint x="403" y="370" as="targetPoint" />
          </mxGeometry>
        </mxCell>
        <mxCell id="98vJzE4Z4TFfjShBDfRC-25" value="存" style="edgeLabel;html=1;align=center;verticalAlign=middle;resizable=0;points=[];fontSize=10;" parent="98vJzE4Z4TFfjShBDfRC-12" vertex="1" connectable="0">
          <mxGeometry x="0.215" y="-2" relative="1" as="geometry">
            <mxPoint as="offset" />
          </mxGeometry>
        </mxCell>
        <mxCell id="98vJzE4Z4TFfjShBDfRC-13" value="" style="endArrow=classic;startArrow=classic;html=1;rounded=0;fontSize=11;fontColor=#000000;strokeColor=#000000;jumpStyle=none;entryX=0.5;entryY=1;entryDx=0;entryDy=0;exitX=0.75;exitY=0;exitDx=0;exitDy=0;" parent="1" source="98vJzE4Z4TFfjShBDfRC-1" target="98vJzE4Z4TFfjShBDfRC-5" edge="1">
          <mxGeometry width="50" height="50" relative="1" as="geometry">
            <mxPoint x="168.00000000000023" y="428" as="sourcePoint" />
            <mxPoint x="168" y="348" as="targetPoint" />
            <Array as="points" />
          </mxGeometry>
        </mxCell>
        <mxCell id="98vJzE4Z4TFfjShBDfRC-27" value="取" style="edgeLabel;html=1;align=center;verticalAlign=middle;resizable=0;points=[];fontSize=10;" parent="98vJzE4Z4TFfjShBDfRC-13" vertex="1" connectable="0">
          <mxGeometry x="-0.3848" y="-1" relative="1" as="geometry">
            <mxPoint x="-1" y="-15" as="offset" />
          </mxGeometry>
        </mxCell>
        <mxCell id="98vJzE4Z4TFfjShBDfRC-17" value="&lt;b&gt;数据同步服务&lt;/b&gt;&lt;br&gt;（用户、角色、机构、菜单等）" style="rounded=1;whiteSpace=wrap;html=1;fillColor=#dae8fc;strokeColor=#6c8ebf;shadow=1;arcSize=13;" parent="1" vertex="1">
          <mxGeometry x="48" y="320" width="252" height="120" as="geometry" />
        </mxCell>
        <mxCell id="98vJzE4Z4TFfjShBDfRC-20" value="" style="endArrow=classic;html=1;rounded=0;fontSize=10;entryX=0.5;entryY=0;entryDx=0;entryDy=0;exitX=0.25;exitY=1;exitDx=0;exitDy=0;" parent="1" edge="1">
          <mxGeometry width="50" height="50" relative="1" as="geometry">
            <mxPoint x="155.50000000000023" y="441" as="sourcePoint" />
            <mxPoint x="155.5" y="505" as="targetPoint" />
          </mxGeometry>
        </mxCell>
        <mxCell id="98vJzE4Z4TFfjShBDfRC-23" value="存" style="edgeLabel;html=1;align=center;verticalAlign=middle;resizable=0;points=[];fontSize=10;" parent="98vJzE4Z4TFfjShBDfRC-20" vertex="1" connectable="0">
          <mxGeometry x="-0.3437" relative="1" as="geometry">
            <mxPoint x="-1" y="8" as="offset" />
          </mxGeometry>
        </mxCell>
        <mxCell id="98vJzE4Z4TFfjShBDfRC-21" value="" style="endArrow=classic;html=1;rounded=0;fontSize=10;exitX=1;exitY=0.5;exitDx=0;exitDy=0;" parent="1" edge="1">
          <mxGeometry width="50" height="50" relative="1" as="geometry">
            <mxPoint x="402" y="395" as="sourcePoint" />
            <mxPoint x="300" y="395" as="targetPoint" />
          </mxGeometry>
        </mxCell>
        <mxCell id="98vJzE4Z4TFfjShBDfRC-26" value="取" style="edgeLabel;html=1;align=center;verticalAlign=middle;resizable=0;points=[];fontSize=10;" parent="98vJzE4Z4TFfjShBDfRC-21" vertex="1" connectable="0">
          <mxGeometry x="-0.2523" y="-2" relative="1" as="geometry">
            <mxPoint as="offset" />
          </mxGeometry>
        </mxCell>
        <mxCell id="98vJzE4Z4TFfjShBDfRC-22" value="" style="endArrow=classic;html=1;rounded=0;fontSize=10;entryX=0.5;entryY=0;entryDx=0;entryDy=0;exitX=0.25;exitY=1;exitDx=0;exitDy=0;" parent="1" edge="1">
          <mxGeometry width="50" height="50" relative="1" as="geometry">
            <mxPoint x="194.5" y="505" as="sourcePoint" />
            <mxPoint x="194.50000000000023" y="441" as="targetPoint" />
          </mxGeometry>
        </mxCell>
        <mxCell id="98vJzE4Z4TFfjShBDfRC-24" value="取" style="edgeLabel;html=1;align=center;verticalAlign=middle;resizable=0;points=[];fontSize=10;" parent="98vJzE4Z4TFfjShBDfRC-22" vertex="1" connectable="0">
          <mxGeometry x="0.4062" y="2" relative="1" as="geometry">
            <mxPoint y="10" as="offset" />
          </mxGeometry>
        </mxCell>
        <mxCell id="98vJzE4Z4TFfjShBDfRC-28" value="&lt;b style=&quot;color: rgb(51, 51, 51); font-size: 14px;&quot;&gt;持续验证&lt;/b&gt;" style="rounded=0;whiteSpace=wrap;html=1;shadow=1;fontSize=11;strokeColor=#23445d;strokeWidth=1;fillColor=#bac8d3;" parent="1" vertex="1">
          <mxGeometry x="220" y="77.25" width="110" height="45" as="geometry" />
        </mxCell>
        <mxCell id="98vJzE4Z4TFfjShBDfRC-29" value="&lt;b style=&quot;color: rgb(51, 51, 51); font-size: 14px;&quot;&gt;身份审计&lt;/b&gt;" style="rounded=0;whiteSpace=wrap;html=1;shadow=1;fontSize=11;strokeColor=#23445d;strokeWidth=1;fillColor=#bac8d3;" parent="1" vertex="1">
          <mxGeometry x="351" y="77.25" width="110" height="45" as="geometry" />
        </mxCell>
        <mxCell id="ox4tvJcsVtgA0NAjYwBi-1" value="&lt;b style=&quot;color: rgb(51, 51, 51); font-size: 14px;&quot;&gt;访问行为分析&lt;/b&gt;" style="rounded=0;whiteSpace=wrap;html=1;shadow=1;fontSize=11;strokeColor=#23445d;strokeWidth=1;fillColor=#bac8d3;" vertex="1" parent="1">
          <mxGeometry x="220" y="140.5" width="110" height="45" as="geometry" />
        </mxCell>
        <mxCell id="ox4tvJcsVtgA0NAjYwBi-3" value="&lt;b style=&quot;color: rgb(51, 51, 51); font-size: 14px;&quot;&gt;动态风险预警&lt;/b&gt;" style="rounded=0;whiteSpace=wrap;html=1;shadow=1;fontSize=11;strokeColor=#23445d;strokeWidth=1;fillColor=#bac8d3;" vertex="1" parent="1">
          <mxGeometry x="351" y="140.5" width="110" height="45" as="geometry" />
        </mxCell>
        <mxCell id="ox4tvJcsVtgA0NAjYwBi-6" value="&lt;b style=&quot;color: rgb(51, 51, 51); font-size: 14px;&quot;&gt;审计日志&lt;/b&gt;" style="rounded=0;whiteSpace=wrap;html=1;shadow=1;fontSize=11;strokeColor=#23445d;strokeWidth=1;fillColor=#bac8d3;" vertex="1" parent="1">
          <mxGeometry x="60" y="210" width="110" height="45" as="geometry" />
        </mxCell>
        <mxCell id="ox4tvJcsVtgA0NAjYwBi-7" value="&lt;b style=&quot;color: rgb(51, 51, 51); font-size: 14px;&quot;&gt;审计报表&lt;/b&gt;" style="rounded=0;whiteSpace=wrap;html=1;shadow=1;fontSize=11;strokeColor=#23445d;strokeWidth=1;fillColor=#bac8d3;" vertex="1" parent="1">
          <mxGeometry x="190" y="210" width="110" height="45" as="geometry" />
        </mxCell>
        <mxCell id="ox4tvJcsVtgA0NAjYwBi-8" value="&lt;font color=&quot;#333333&quot;&gt;&lt;span style=&quot;font-size: 14px;&quot;&gt;&lt;b&gt;风险评估&lt;/b&gt;&lt;/span&gt;&lt;/font&gt;&lt;span style=&quot;color: rgba(0, 0, 0, 0); font-family: monospace; font-size: 0px; text-align: start;&quot;&gt;%3CmxGraphModel%3E%3Croot%3E%3CmxCell%20id%3D%220%22%2F%3E%3CmxCell%20id%3D%221%22%20parent%3D%220%22%2F%3E%3CmxCell%20id%3D%222%22%20value%3D%22%26lt%3Bb%20style%3D%26quot%3Bcolor%3A%20rgb(51%2C%2051%2C%2051)%3B%20font-size%3A%2014px%3B%26quot%3B%26gt%3B%E5%AE%A1%E8%AE%A1%E6%8A%A5%E8%A1%A8%26lt%3B%2Fb%26gt%3B%22%20style%3D%22rounded%3D0%3BwhiteSpace%3Dwrap%3Bhtml%3D1%3Bshadow%3D1%3BfontSize%3D11%3BstrokeColor%3D%2323445d%3BstrokeWidth%3D1%3BfillColor%3D%23bac8d3%3B%22%20vertex%3D%221%22%20parent%3D%221%22%3E%3CmxGeometry%20x%3D%22220%22%20y%3D%22210%22%20width%3D%22110%22%20height%3D%2245%22%20as%3D%22geometry%22%2F%3E%3C%2FmxCell%3E%3C%2Froot%3E%3C%2FmxGraphModel%3E&lt;/span&gt;" style="rounded=0;whiteSpace=wrap;html=1;shadow=1;fontSize=11;strokeColor=#23445d;strokeWidth=1;fillColor=#bac8d3;" vertex="1" parent="1">
          <mxGeometry x="320" y="210" width="110" height="45" as="geometry" />
        </mxCell>
        <mxCell id="ox4tvJcsVtgA0NAjYwBi-9" value="&lt;font color=&quot;#333333&quot;&gt;&lt;span style=&quot;font-size: 14px;&quot;&gt;&lt;b&gt;只能提醒&lt;/b&gt;&lt;/span&gt;&lt;/font&gt;" style="rounded=0;whiteSpace=wrap;html=1;shadow=1;fontSize=11;strokeColor=#23445d;strokeWidth=1;fillColor=#bac8d3;" vertex="1" parent="1">
          <mxGeometry x="450" y="210" width="110" height="45" as="geometry" />
        </mxCell>
      </root>
    </mxGraphModel>
  </diagram>
  <diagram id="HrFjFPu9NfcljseWr6zG" name="第 2 页">
    <mxGraphModel dx="868" dy="525" grid="1" gridSize="10" guides="1" tooltips="1" connect="1" arrows="1" fold="1" page="1" pageScale="1" pageWidth="300" pageHeight="900" math="0" shadow="0">
      <root>
        <mxCell id="0" />
        <mxCell id="1" parent="0" />
      </root>
    </mxGraphModel>
  </diagram>
</mxfile>
